<?xml version="1.0" encoding="UTF-8"?>
<svg version="1.1" viewBox="0 0 180 50" xmlns="http://www.w3.org/2000/svg">
  <g fill="#fff">
    <path d="m165.51 16.364h3.07v4.711l-0.187 2.0859h0.187c0.328-0.5469 0.797-0.9922 1.406-1.3359 0.625-0.3594 1.321-0.5391 2.086-0.5391 1.485 0 2.578 0.4375 3.281 1.3125 0.719 0.875 1.079 2.0703 1.079 3.5859v6.961h-3.071v-6.586c0-0.7968-0.187-1.3984-0.562-1.8046-0.375-0.4219-0.899-0.6329-1.571-0.6329-0.421 0-0.796 0.0938-1.125 0.2813-0.328 0.1719-0.609 0.4141-0.843 0.7266-0.219 0.3125-0.391 0.6796-0.516 1.1015-0.109 0.4063-0.164 0.8438-0.164 1.3125v5.6016h-3.07v-16.781z" />
    <path
      d="m164.34 30.215c-0.5 0.9687-1.203 1.7656-2.11 2.3906-0.89 0.6094-2.007 0.9141-3.351 0.9141-0.891 0-1.711-0.1485-2.461-0.4453-0.735-0.3125-1.375-0.7422-1.922-1.2891-0.531-0.5469-0.953-1.1875-1.266-1.9219-0.297-0.75-0.445-1.5703-0.445-2.4609s0.148-1.7109 0.445-2.4609c0.313-0.75 0.735-1.3907 1.266-1.9219 0.547-0.5469 1.187-0.9688 1.922-1.2656 0.75-0.3125 1.57-0.4688 2.461-0.4688 1.328 0 2.445 0.3047 3.351 0.9141 0.907 0.6093 1.571 1.3984 1.993 2.3672l-2.813 1.1718c-0.266-0.5312-0.609-0.9297-1.031-1.1953-0.406-0.2812-0.922-0.4219-1.547-0.4219-0.406 0-0.789 0.0782-1.149 0.2344-0.359 0.1563-0.679 0.375-0.96 0.6563-0.266 0.2812-0.477 0.625-0.633 1.0312-0.157 0.4063-0.235 0.8594-0.235 1.3594s0.078 0.9531 0.235 1.3594c0.156 0.4062 0.367 0.75 0.633 1.0312 0.281 0.2813 0.601 0.5 0.96 0.6563 0.36 0.1562 0.743 0.2343 1.149 0.2343 0.641 0 1.18-0.1406 1.617-0.4218 0.453-0.2969 0.813-0.7188 1.078-1.2657l2.813 1.2188z"
    />
    <path
      d="m151.88 30.379c-0.532 0.9375-1.25 1.6953-2.157 2.2734-0.89 0.5781-1.984 0.8672-3.281 0.8672-0.875 0-1.687-0.1485-2.437-0.4453-0.735-0.3125-1.375-0.7422-1.922-1.2891s-0.977-1.1875-1.289-1.9219c-0.297-0.75-0.446-1.5703-0.446-2.4609 0-0.8281 0.149-1.6094 0.446-2.3438 0.297-0.75 0.711-1.3984 1.242-1.9453 0.531-0.5625 1.156-1.0078 1.875-1.3359 0.734-0.3281 1.539-0.4922 2.414-0.4922 0.922 0 1.742 0.1563 2.461 0.4688 0.719 0.2968 1.32 0.7187 1.805 1.2656 0.484 0.5312 0.851 1.164 1.101 1.8984s0.375 1.5313 0.375 2.3906v0.2813c-0.016 0.0937-0.023 0.1797-0.023 0.2578-0.016 0.0781-0.024 0.1641-0.024 0.2578h-8.648c0.062 0.4688 0.187 0.875 0.375 1.2188 0.203 0.3281 0.445 0.6093 0.726 0.8437 0.297 0.2188 0.618 0.3828 0.961 0.4922 0.344 0.0938 0.696 0.1406 1.055 0.1406 0.703 0 1.281-0.1562 1.734-0.4687 0.469-0.3281 0.836-0.7344 1.102-1.2188l2.555 1.2657zm-2.789-4.4532c-0.016-0.2031-0.086-0.4297-0.211-0.6797-0.11-0.25-0.282-0.4843-0.516-0.7031-0.219-0.2187-0.5-0.3984-0.844-0.539-0.328-0.1407-0.726-0.211-1.195-0.211-0.656 0-1.234 0.1875-1.734 0.5625s-0.852 0.8985-1.055 1.5703h5.555z"
    />
    <path d="m133.86 33.145v-13.781h-4.688v-3h12.539v3h-4.687v13.781h-3.164z" />
    <path
      d="m128.48 30.379c-0.531 0.9375-1.25 1.6953-2.156 2.2734-0.891 0.5781-1.985 0.8672-3.281 0.8672-0.875 0-1.688-0.1485-2.438-0.4453-0.734-0.3125-1.375-0.7422-1.922-1.2891s-0.976-1.1875-1.289-1.9219c-0.297-0.75-0.445-1.5703-0.445-2.4609 0-0.8281 0.148-1.6094 0.445-2.3438 0.297-0.75 0.711-1.3984 1.242-1.9453 0.532-0.5625 1.157-1.0078 1.875-1.3359 0.735-0.3281 1.539-0.4922 2.414-0.4922 0.922 0 1.743 0.1563 2.461 0.4688 0.719 0.2968 1.321 0.7187 1.805 1.2656 0.484 0.5312 0.852 1.164 1.102 1.8984s0.375 1.5313 0.375 2.3906v0.2813c-0.016 0.0937-0.024 0.1797-0.024 0.2578-0.016 0.0781-0.023 0.1641-0.023 0.2578h-8.649c0.063 0.4688 0.188 0.875 0.375 1.2188 0.203 0.3281 0.446 0.6093 0.727 0.8437 0.297 0.2188 0.617 0.3828 0.961 0.4922 0.343 0.0938 0.695 0.1406 1.054 0.1406 0.704 0 1.282-0.1562 1.735-0.4687 0.469-0.3281 0.836-0.7344 1.101-1.2188l2.555 1.2657zm-2.789-4.4532c-0.016-0.2031-0.086-0.4297-0.211-0.6797-0.109-0.25-0.281-0.4843-0.516-0.7031-0.218-0.2187-0.5-0.3984-0.843-0.539-0.328-0.1407-0.727-0.211-1.196-0.211-0.656 0-1.234 0.1875-1.734 0.5625s-0.852 0.8985-1.055 1.5703h5.555z"
    />
    <path d="m109.47 21.66h2.883v1.5938h0.188c0.14-0.2813 0.328-0.5391 0.562-0.7735 0.235-0.2344 0.492-0.4375 0.774-0.6094 0.296-0.1718 0.609-0.3046 0.937-0.3984 0.344-0.0937 0.68-0.1406 1.008-0.1406 0.406 0 0.75 0.039 1.031 0.1172 0.297 0.0781 0.547 0.1796 0.75 0.3046l-0.82 2.7891c-0.188-0.0937-0.399-0.1641-0.633-0.2109-0.219-0.0625-0.492-0.0938-0.82-0.0938-0.422 0-0.805 0.086-1.149 0.2578-0.343 0.1563-0.64 0.3828-0.89 0.6797-0.235 0.2969-0.422 0.6485-0.563 1.0547-0.125 0.3906-0.187 0.8203-0.187 1.2891v5.625h-3.071v-11.484z" />
    <path d="m104.66 31.645h-0.188c-0.359 0.5781-0.844 1.039-1.453 1.3828-0.609 0.3281-1.305 0.4922-2.086 0.4922-1.4532 0-2.5391-0.4453-3.2579-1.336-0.7031-0.8906-1.0546-2.0781-1.0546-3.5625v-6.9609h3.0703v6.5859c0 0.8282 0.1797 1.4454 0.5392 1.8516 0.375 0.3906 0.914 0.5859 1.617 0.5859 0.422 0 0.789-0.0859 1.102-0.2578 0.328-0.1875 0.601-0.4297 0.82-0.7265 0.234-0.3125 0.406-0.6719 0.516-1.0782 0.125-0.4218 0.187-0.8671 0.187-1.3359v-5.625h3.07v11.484h-2.882v-1.5z" />
    <path d="m89.276 24.285h-2.0156v-2.625h2.0156v-3.5156h3.0703v3.5156h2.8125v2.625h-2.8125v4.4531c0 0.2657 0.0235 0.5157 0.0703 0.75 0.0625 0.2188 0.1719 0.4063 0.3282 0.5625 0.2187 0.25 0.5312 0.375 0.9375 0.375 0.2656 0 0.4765-0.0234 0.6328-0.0703 0.1562-0.0625 0.3047-0.1406 0.4453-0.2344l0.8672 2.6954c-0.3594 0.1718-0.75 0.2968-1.1719 0.375-0.4063 0.0937-0.8594 0.1406-1.3594 0.1406-0.5781 0-1.1015-0.086-1.5703-0.2578-0.4531-0.1875-0.8359-0.4375-1.1484-0.75-0.7344-0.7032-1.1016-1.7032-1.1016-3v-5.0391z" />
    <path d="m83.086 31.645h-0.1875c-0.3593 0.5781-0.8437 1.039-1.4531 1.3828-0.6094 0.3281-1.3047 0.4922-2.0859 0.4922-1.4532 0-2.5391-0.4453-3.2578-1.336-0.7032-0.8906-1.0547-2.0781-1.0547-3.5625v-6.9609h3.0703v6.5859c0 0.8282 0.1797 1.4454 0.539 1.8516 0.375 0.3906 0.9141 0.5859 1.6172 0.5859 0.4219 0 0.7891-0.0859 1.1016-0.2578 0.3281-0.1875 0.6016-0.4297 0.8203-0.7265 0.2344-0.3125 0.4063-0.6719 0.5156-1.0782 0.125-0.4218 0.1875-0.8671 0.1875-1.3359v-5.625h3.0703v11.484h-2.8828v-1.5z" />
    <path d="m63.608 16.364h10.641v3h-7.4766v4.0781h6.7266v3.0001h-6.7266v6.7031h-3.164v-16.781z" />
  </g>
  <g fill="#FFD11A">
    <path d="m34.214 50v-8.3333c4.6111 0 8.3333-3.7222 8.3333-8.3333h8.3333c0 9.2222-7.4722 16.667-16.667 16.667z" />
    <path d="m34.214 50v-8.3333c-4.6111 0-8.3333-3.7222-8.3333-8.3333h-8.3334c0 9.2222 7.4723 16.667 16.667 16.667z" />
    <path d="m0.88019 33.334h8.3333c0 4.6111 3.7222 8.3333 8.3334 8.3333v8.3334c-9.1945 0-16.667-7.4445-16.667-16.667z" />
    <path d="m0.88019 33.333h8.3333c0-4.6111 3.7222-8.3333 8.3334-8.3333v-8.3334c-9.1945 0-16.667 7.4723-16.667 16.667z" />
    <path d="m17.547 0v8.3333c-4.6112 0-8.3334 3.7223-8.3334 8.3334h-8.3333c0-9.1945 7.4722-16.667 16.667-16.667z" />
    <path d="m17.547 0v8.3333c4.6112 0 8.3334 3.7223 8.3334 8.3334h8.3333c0-9.1945-7.4722-16.667-16.667-16.667z" />
    <path d="m50.88 16.667h-8.3333c0-4.6111-3.7223-8.3334-8.3334-8.3334v-8.3333c9.1945 0 16.667 7.4722 16.667 16.667z" />
    <path d="m50.88 16.667h-8.3333c0 4.6112-3.7222 8.3334-8.3333 8.3334v8.3333c9.1944 0 16.667-7.4444 16.667-16.667z" />
  </g>
</svg>
