<?xml version="1.0" encoding="UTF-8"?>
<svg width="51" height="50" fill="none" version="1.1" viewBox="0 0 51 50" xmlns="http://www.w3.org/2000/svg">
 <g fill="#FFD11A">
  <path d="m34.214 50v-8.3333c4.6111 0 8.3333-3.7222 8.3333-8.3333h8.3333c0 9.2222-7.4722 16.667-16.667 16.667z"/>
  <path d="m34.214 50v-8.3333c-4.6111 0-8.3333-3.7222-8.3333-8.3333h-8.3334c0 9.2222 7.4723 16.667 16.667 16.667z"/>
  <path d="m0.88019 33.334h8.3333c0 4.6111 3.7222 8.3333 8.3334 8.3333v8.3334c-9.1945 0-16.667-7.4445-16.667-16.667z"/>
  <path d="m0.88019 33.333h8.3333c0-4.6111 3.7222-8.3333 8.3334-8.3333v-8.3334c-9.1945 0-16.667 7.4723-16.667 16.667z"/>
  <path d="m17.547 0v8.3333c-4.6112 0-8.3334 3.7223-8.3334 8.3334h-8.3333c0-9.1945 7.4722-16.667 16.667-16.667z"/>
  <path d="m17.547 0v8.3333c4.6112 0 8.3334 3.7223 8.3334 8.3334h8.3333c0-9.1945-7.4722-16.667-16.667-16.667z"/>
  <path d="m50.88 16.667h-8.3333c0-4.6111-3.7223-8.3334-8.3334-8.3334v-8.3333c9.1945 0 16.667 7.4722 16.667 16.667z"/>
  <path d="m50.88 16.667h-8.3333c0 4.6112-3.7222 8.3334-8.3333 8.3334v8.3333c9.1944 0 16.667-7.4444 16.667-16.667z"/>
 </g>
</svg>
